<!-- created by svgstack.com | Attribution is required. --><svg width="108" height="108" viewBox="0 0 108 108" fill="none" xmlns="http://www.w3.org/2000/svg"><path d="M81.667 71.3506L54.0039 99.0137L26.3564 71.3652L26.3408 71.3506L36.5254 61.1953L54.0039 78.6738L71.498 61.1807L81.667 71.3506ZM64.3242 54.0068L54.0049 64.3408L43.6855 54.0215V53.9912L45.4971 52.1797L46.3809 51.3105L54.0049 43.6875L64.3242 54.0068ZM99 54.0098L88.833 64.1768L78.666 54.0098L88.833 43.8428L99 54.0098ZM29.334 54.0029L19.167 64.1699L9 54.0029L19.167 43.8359L29.334 54.0029ZM81.668 36.6631L71.498 46.833L54.0049 29.3389L36.5264 46.8174L26.3564 36.6484L54.0049 9L81.668 36.6631Z" fill="#F3BA2F"/></svg> 