<!-- created by svgstack.com | Attribution is required. --><svg width="108" height="108" viewBox="0 0 108 108" fill="none" xmlns="http://www.w3.org/2000/svg"><path d="M98.9938 53.8018C99.033 62.7008 96.4325 71.4117 91.521 78.8327C86.6096 86.2538 79.6078 92.0518 71.4011 95.4935C63.1944 98.9351 54.1514 99.8659 45.4158 98.1681C36.6801 96.4703 28.644 92.2202 22.3238 85.9552C16.0037 79.6902 11.6832 71.6917 9.90891 62.9713C8.13459 54.2508 8.98605 45.2 12.3556 36.9635C15.7252 28.7269 21.4616 21.6746 28.8393 16.6982C36.217 11.7219 44.9047 9.04507 53.8038 9.00629C65.7365 8.95429 77.2012 13.6445 85.6759 22.0452C94.1506 30.4459 98.9412 41.869 98.9938 53.8018Z" fill="#8DC63F"/><path d="M95.6196 53.8171C95.6569 62.0475 93.2528 70.1041 88.7112 76.968C84.1697 83.832 77.6947 89.1951 70.1051 92.3791C62.5154 95.5631 54.1521 96.425 46.0726 94.8557C37.9932 93.2865 30.5605 89.3566 24.7146 83.5631C18.8686 77.7696 14.8719 70.3727 13.23 62.3077C11.588 54.2427 12.3745 45.8719 15.4899 38.2539C18.6054 30.6359 23.9099 24.1129 30.7327 19.5097C37.5555 14.9064 45.5901 12.4298 53.8205 12.393C64.8562 12.3444 75.4594 16.6812 83.298 24.4495C91.1366 32.2178 95.5687 42.7814 95.6196 53.8171V53.8171Z" fill="#F9E988"/><path d="M54.7658 15.0899C57.4111 14.6204 60.1185 14.6204 62.7637 15.0899C65.4347 15.5129 68.0164 16.3779 70.403 17.6494C72.7766 18.9536 74.8274 20.724 76.8685 22.3836C78.9095 24.0432 80.9408 25.7419 82.8743 27.6003C84.8479 29.4298 86.5703 31.5129 87.9964 33.7952C89.4648 36.0594 90.6682 38.4848 91.583 41.0236C93.3208 46.1295 93.924 51.6299 93.0567 56.876H92.7991C91.9286 51.6756 90.7483 46.7197 88.8866 42.005C88.0127 39.6309 86.9846 37.3165 85.8087 35.0766C84.5818 32.8363 83.2299 30.6668 81.7592 28.5785C80.2636 26.4672 78.4306 24.6166 76.3338 23.1009C74.221 21.5946 71.792 20.6197 69.4412 19.6937C67.0904 18.7677 64.7591 17.8092 62.3073 17.1049C59.8554 16.4006 57.3644 15.8725 54.7626 15.3606L54.7658 15.0899Z" fill="white"/><path d="M75.1077 39.1294C72.0885 38.2556 68.9585 37.0167 65.7893 35.7646C65.6067 34.9691 64.9025 33.9779 63.4776 32.7683C61.4072 30.9718 57.5175 31.0174 54.156 31.813C50.4456 30.9392 46.7808 30.6294 43.2628 31.4869C14.4892 39.4131 30.8046 58.7509 20.2407 78.1898C21.7437 81.3785 37.945 99.9827 61.3877 94.9909C61.3877 94.9909 53.3702 75.7248 71.4625 66.4782C86.1378 58.9498 96.7409 45.0211 75.1077 39.1294Z" fill="#8BC53F"/><path d="M78.6616 51.7824C78.6636 52.1274 78.5632 52.4652 78.3731 52.7531C78.183 53.0411 77.9119 53.2662 77.5939 53.4C77.2759 53.5338 76.9253 53.5703 76.5866 53.5049C76.2479 53.4395 75.9361 53.2751 75.6908 53.0325C75.4455 52.7899 75.2776 52.4801 75.2084 52.1421C75.1392 51.8041 75.1718 51.4532 75.302 51.1337C75.4323 50.8142 75.6543 50.5406 75.9401 50.3473C76.2259 50.154 76.5625 50.0498 76.9075 50.0479C77.3699 50.0461 77.8141 50.2277 78.1429 50.5528C78.4717 50.8779 78.6582 51.3201 78.6616 51.7824V51.7824Z" fill="white"/><path d="M54.156 31.7993C56.2525 31.9493 63.8331 34.4077 65.7894 35.751C64.1591 31.0233 58.6718 30.3941 54.156 31.7993Z" fill="#009345"/><path d="M56.1515 43.7557C56.1521 45.3474 55.6807 46.9034 54.7969 48.2272C53.9131 49.5509 52.6566 50.5828 51.1863 51.1923C49.716 51.8018 48.0979 51.9617 46.5368 51.6515C44.9756 51.3414 43.5415 50.5753 42.4158 49.4501C41.2901 48.3248 40.5234 46.891 40.2127 45.33C39.9019 43.769 40.0611 42.1509 40.67 40.6803C41.279 39.2098 42.3104 37.9529 43.6337 37.0685C44.9571 36.1842 46.513 35.7122 48.1046 35.7122C49.1612 35.7117 50.2075 35.9195 51.1838 36.3235C52.16 36.7275 53.0471 37.32 53.7944 38.0669C54.5417 38.8139 55.1344 39.7007 55.5389 40.6768C55.9433 41.6529 56.1515 42.6991 56.1515 43.7557Z" fill="white"/><path d="M53.7649 43.8281C53.7649 44.9476 53.433 46.0419 52.811 46.9727C52.1891 47.9035 51.3051 48.629 50.2708 49.0574C49.2366 49.4858 48.0985 49.5979 47.0005 49.3795C45.9025 49.1611 44.894 48.622 44.1024 47.8305C43.3108 47.0389 42.7717 46.0303 42.5533 44.9324C42.3349 43.8344 42.447 42.6963 42.8754 41.6621C43.3038 40.6278 44.0293 39.7438 44.9601 39.1219C45.8909 38.4999 46.9853 38.168 48.1048 38.168C49.6059 38.168 51.0456 38.7643 52.1071 39.8258C53.1686 40.8873 53.7649 42.327 53.7649 43.8281V43.8281Z" fill="#58595B"/><path d="M85.1792 55.3301C78.6582 59.9241 71.244 63.4095 60.7257 63.4095C55.8024 63.4095 54.8047 58.1928 51.5508 60.7425C49.8716 62.0662 43.9506 65.0267 39.2523 64.8017C34.554 64.5768 26.9376 61.8217 24.815 51.7925C23.9738 61.8217 23.5434 69.2099 19.7776 77.6773C27.2766 89.6856 45.157 98.9486 61.3876 94.9578C59.6432 82.7799 70.2854 70.8532 76.2814 64.7496C78.5637 62.4379 82.9001 58.6655 85.1792 55.3236V55.3301Z" fill="#8BC53F"/><path d="M84.9251 55.6304C82.9003 57.4758 80.4909 58.8419 78.039 60.0483C75.5573 61.2267 72.9701 62.1687 70.3117 62.8621C67.6512 63.55 64.8765 64.0684 62.066 63.8141C59.2555 63.5598 56.383 62.6045 54.5213 60.4982L54.6093 60.3972C56.8917 61.8774 59.5261 62.3991 62.1475 62.4741C64.8046 62.5549 67.4623 62.3361 70.0704 61.822C72.705 61.2704 75.2823 60.4736 77.7684 59.4418C80.2561 58.4148 82.7178 57.2247 84.8371 55.5293L84.9251 55.6304Z" fill="#58595B"/></svg> 