<!-- created by svgstack.com | Attribution is required. --><svg width="201" height="201" viewBox="0 0 201 201" fill="none" xmlns="http://www.w3.org/2000/svg"><g clip-path="url(#clip0_106_2296)"><path d="M100.24 0.275391C155.474 0.275391 200.24 45.041 200.24 100.275C200.24 155.51 155.474 200.275 100.24 200.275C45.0051 200.275 0.239502 155.51 0.239502 100.275C0.239502 45.041 45.0051 0.275391 100.24 0.275391Z" fill="#0052FF"/><path d="M100.259 135.432C80.845 135.432 65.1028 119.709 65.1028 100.275C65.1028 80.8418 80.845 65.1191 100.259 65.1191C117.661 65.1191 132.115 77.8145 134.888 94.416H170.298C167.31 58.3223 137.095 29.9629 100.24 29.9629C61.4114 29.9629 29.927 61.4473 29.927 100.275C29.927 139.104 61.4114 170.588 100.24 170.588C137.095 170.588 167.31 142.229 170.298 106.135H134.868C132.075 122.736 117.661 135.432 100.259 135.432Z" fill="white"/></g><defs><clipPath id="clip0_106_2296"><rect width="200" height="200" fill="white" transform="translate(0.239502 0.275391)"/></clipPath></defs></svg> 