<!-- created by svgstack.com | Attribution is required. --><svg width="109" height="108" viewBox="0 0 109 108" fill="none" xmlns="http://www.w3.org/2000/svg"><path fill-rule="evenodd" clip-rule="evenodd" d="M54.4686 93.9736C41.9782 93.9642 31.9186 90.9667 24.8886 85.5839C17.7744 80.1356 14 72.405 14 63.6569C14 55.2284 17.7664 49.1504 22.0274 45.0418C25.3659 41.8222 29.0507 39.7606 31.6164 38.5733C30.9104 36.4172 30.2596 34.2434 29.6644 32.054C28.798 28.8319 27.9477 25.0521 27.9477 22.2818C27.9477 19.0035 28.663 15.7104 30.5909 13.1514C32.6272 10.4493 35.693 9.00134 39.3804 9.00134C42.263 9.00134 44.7098 10.0709 46.627 11.9147C48.4574 13.6769 49.6754 16.0193 50.5177 18.4593C51.9965 22.7485 52.5727 28.1366 52.7331 33.5141H56.2669C56.4273 28.1366 57.0036 22.7485 58.4823 18.4593C59.3246 16.0193 60.5426 13.6769 62.373 11.9147C64.2903 10.0696 66.737 9 69.6196 9C73.307 9 76.3728 10.4493 78.4091 13.1514C80.337 15.7104 81.0523 19.0035 81.0523 22.2832C81.0523 25.0521 80.202 28.8319 79.3356 32.054C78.7405 34.2434 78.0896 36.4172 77.3836 38.5733C79.9493 39.7606 83.6341 41.8222 86.9726 45.0418C91.2337 49.1504 95 55.2284 95 63.6569C95 72.405 91.2256 80.1356 84.1114 85.5839C77.0827 90.9667 67.0218 93.9642 54.5314 93.9736H54.4686V93.9736Z" fill="#633001"/><path d="M39.3805 12.1187C33.979 12.1187 31.4921 16.1898 31.4921 21.82C31.4921 26.295 34.3801 35.2569 35.5673 38.7465C35.8334 39.5313 35.4149 40.391 34.6502 40.6959C30.3209 42.4206 17.5445 48.734 17.5445 63.1951C17.5445 78.4276 30.5282 89.9125 54.4713 89.9312H54.5288C78.472 89.9125 91.4557 78.4276 91.4557 63.1951C91.4557 48.734 78.6792 42.4193 74.35 40.6959C73.9777 40.5488 73.6755 40.2652 73.505 39.903C73.3346 39.5407 73.3088 39.1271 73.4328 38.7465C74.6187 35.2569 77.508 26.295 77.508 21.82C77.508 16.1898 75.0211 12.1187 69.6196 12.1187C61.8436 12.1187 59.9049 23.2452 59.7659 35.1874C59.7645 35.5686 59.613 35.9338 59.3442 36.2041C59.0755 36.4743 58.7111 36.6279 58.3299 36.6314H50.6689C49.88 36.6314 49.2423 35.9843 49.2329 35.1874C49.0952 23.2452 47.1565 12.1187 39.3805 12.1187V12.1187Z" fill="#D1884F"/><path d="M54.5288 85.0521C36.9364 85.0521 17.5739 75.5393 17.5445 63.2241V63.2816C17.5445 78.5275 30.5496 90.0178 54.5288 90.0178C78.5081 90.0178 91.5118 78.5275 91.5118 63.2816V63.2241C91.4824 75.538 72.1212 85.0521 54.5288 85.0521V85.0521Z" fill="#FEDC90"/><path d="M44.7539 59.4422C44.7539 63.6003 42.8085 65.7663 40.4086 65.7663C38.01 65.7663 36.0647 63.6003 36.0647 59.4422C36.0647 55.2841 38.01 53.1182 40.4099 53.1182C42.8085 53.1182 44.7539 55.2841 44.7539 59.4422ZM72.9915 59.4422C72.9915 63.6003 71.0462 65.7663 68.6462 65.7663C66.2476 65.7663 64.3036 63.6003 64.3036 59.4422C64.3036 55.2841 66.2476 53.1182 68.6476 53.1182C71.0462 53.1182 72.9929 55.2841 72.9929 59.4422H72.9915Z" fill="#633001"/></svg> 