<!-- created by svgstack.com | Attribution is required. --><svg width="109" height="108" viewBox="0 0 109 108" fill="none" xmlns="http://www.w3.org/2000/svg"><path d="M28.0706 18.252L97.9845 65.9889L80.694 91.5488L10.78 43.436L28.0706 18.252Z" fill="url(#paint0_linear_503_740)"/><path d="M97.9846 65.9884C91.9705 74.6337 71.6729 71.2508 52.503 57.719C32.9571 44.5632 22.4325 26.8967 28.0707 18.2515C34.0848 9.60619 54.3824 12.9891 73.5523 26.5209C93.0982 39.3008 103.623 57.3431 97.9846 65.9884Z" fill="url(#paint1_linear_503_740)"/><path d="M80.6941 91.1729C74.68 99.8182 54.3824 96.4352 35.2124 82.9035C16.0424 69.3718 5.14188 52.0812 11.156 43.0601C17.1701 34.4148 37.4677 37.7977 56.6376 51.3295C75.8076 64.8612 86.3323 82.5276 80.6941 91.1729Z" fill="url(#paint2_linear_503_740)"/><path d="M97.9845 65.9888L80.694 91.5487C74.6799 100.194 54.3823 96.4352 35.2123 83.2793C31.4535 80.6481 28.0706 78.017 24.6876 75.0099C27.3188 74.634 30.7017 73.1305 34.0847 69.3717C40.0988 62.9817 43.1058 61.4782 45.737 61.8541C48.3682 61.8541 51.3752 64.4852 56.2617 70.8752C61.1481 77.2652 67.914 79.1446 72.0487 75.7617C72.4246 75.3858 72.8005 75.3858 73.1763 75.0099C76.5593 72.3787 77.6869 71.2511 84.0769 59.2229C85.5804 56.2158 90.8428 51.3294 97.9845 53.5847C99.8639 58.4711 99.8639 62.6058 97.9845 65.9888Z" fill="#0E0F23"/><path fill-rule="evenodd" clip-rule="evenodd" d="M95.3534 64.485C90.091 72.0026 71.6729 68.2438 54.0064 55.8397C35.9641 43.4356 25.4394 27.6486 30.7018 20.131C35.9641 12.6134 54.3823 16.3722 72.0487 28.7763C89.7152 41.1804 100.24 56.9674 95.3534 64.485ZM78.8146 53.2086C76.1834 56.9674 67.1623 55.088 58.1411 49.0739C49.4958 43.0598 44.2335 35.1663 46.8647 31.4074C49.4958 27.6486 58.517 29.528 67.5382 35.5421C76.1834 41.5562 81.4458 49.4497 78.8146 53.2086Z" fill="white"/><path d="M26.5672 26.8966C26.5672 26.5207 26.1913 26.1448 25.8154 26.5207C25.4395 26.8966 25.0637 26.8966 25.0637 27.2724C25.4395 28.4001 25.8154 29.1519 25.8154 29.9036C25.8154 30.2795 26.1913 30.6554 26.5672 30.2795C26.9431 30.2795 27.3189 29.9036 26.9431 29.5277C26.9431 28.776 26.9431 28.0242 26.5672 26.8966Z" fill="white"/><path d="M28.4465 32.9105C28.4465 32.5346 28.0706 32.1587 27.6947 32.5346C27.3188 32.9105 27.3188 32.9105 27.3188 33.2864C31.4535 42.6834 40.0988 52.8322 51.3753 60.3498C51.7511 60.7257 52.127 60.3498 52.5029 60.3498C52.8788 59.974 52.5029 59.5981 52.5029 59.2222C40.8506 51.7046 32.5812 41.9316 28.4465 32.9105Z" fill="white"/><path d="M73.9282 69.7478C73.5524 69.7478 73.1765 69.7478 73.1765 70.1237C73.1765 70.4996 73.1765 70.8754 73.5524 70.8754C74.68 71.2513 76.1835 71.6272 77.3112 72.0031C77.6871 72.0031 78.0629 72.0031 78.0629 71.6272C78.0629 71.2513 78.0629 70.8754 77.6871 70.8754C76.5594 70.4996 75.0559 70.1237 73.9282 69.7478Z" fill="white"/><path d="M80.6941 71.2507C80.3182 71.2507 79.9423 71.6266 79.9423 72.0025C79.9423 72.3784 80.3182 72.7543 80.6941 72.7543C83.7011 73.1301 87.0841 73.506 89.7152 73.1301C90.0911 73.1301 90.467 72.7543 90.467 72.3784C90.467 72.0025 90.0911 71.6266 89.7152 71.6266C86.7082 72.0025 83.7011 71.6266 80.6941 71.2507Z" fill="white"/><defs><linearGradient id="paint0_linear_503_740" x1="41.7685" y1="11.4647" x2="55.6332" y2="59.0746" gradientUnits="userSpaceOnUse"><stop stop-color="#03B8FF"/><stop offset="1" stop-color="#FA52A0"/></linearGradient><linearGradient id="paint1_linear_503_740" x1="53.1863" y1="8.13875" x2="67.0515" y2="55.749" gradientUnits="userSpaceOnUse"><stop stop-color="#03B8FF"/><stop offset="1" stop-color="#FA52A0"/></linearGradient><linearGradient id="paint2_linear_503_740" x1="30.3861" y1="14.7791" x2="44.2512" y2="62.3894" gradientUnits="userSpaceOnUse"><stop stop-color="#03B8FF"/><stop offset="1" stop-color="#FA52A0"/></linearGradient></defs></svg> 