<!-- created by svgstack.com | Attribution is required. --><svg width="108" height="108" viewBox="0 0 108 108" fill="none" xmlns="http://www.w3.org/2000/svg"><path d="M54 99C78.8528 99 99 78.8528 99 54C99 29.1472 78.8528 9 54 9C29.1472 9 9 29.1472 9 54C9 78.8528 29.1472 99 54 99Z" fill="#FF007A"/><path d="M43.4408 23.2964C42.6393 23.1726 42.6055 23.1557 42.9824 23.0995C43.7052 22.987 45.4152 23.1417 46.5936 23.4201C49.3415 24.0754 51.8418 25.7489 54.5136 28.7217L55.2224 29.5092L56.2349 29.3489C60.5099 28.6598 64.8608 29.2082 68.4974 30.8873C69.4986 31.3486 71.0765 32.2682 71.2733 32.5073C71.338 32.5804 71.4533 33.067 71.5293 33.5845C71.7993 35.3761 71.6643 36.7486 71.1186 37.7751C70.8205 38.332 70.8036 38.5064 71.0033 38.9845C71.0981 39.182 71.2464 39.3489 71.4314 39.4662C71.6163 39.5836 71.8305 39.6466 72.0496 39.6482C72.9552 39.6482 73.9283 38.1857 74.3783 36.1523L74.5583 35.3451L74.9127 35.7473C76.859 37.9523 78.3861 40.9589 78.6477 43.0964L78.718 43.6561L78.389 43.1498C77.8265 42.2779 77.264 41.6817 76.5383 41.2007C75.2333 40.3373 73.8524 40.0448 70.1961 39.8507C66.8943 39.6764 65.024 39.3951 63.1733 38.7904C60.0205 37.7639 58.4315 36.3942 54.6852 31.4807C53.023 29.2982 51.9936 28.0917 50.9727 27.1214C48.6468 24.9107 46.363 23.752 43.4408 23.2964Z" fill="white"/><path d="M72.2176 29.8181C72.302 28.3556 72.4989 27.3909 72.8982 26.5106C73.0557 26.1619 73.2048 25.875 73.2273 25.875C73.2022 26.0724 73.1502 26.2655 73.0726 26.4487C72.7829 27.3037 72.7351 28.4737 72.9348 29.8322C73.1879 31.5591 73.3342 31.8066 75.1567 33.6712C76.0145 34.5459 77.0101 35.6484 77.3701 36.1237L78.0254 36.9844L77.3701 36.3684C76.5686 35.6175 74.7236 34.1466 74.3157 33.9384C74.0429 33.7978 74.0007 33.8006 73.832 33.9666C73.6773 34.1241 73.6436 34.3547 73.6239 35.4544C73.5901 37.1644 73.3567 38.2669 72.7914 39.3637C72.4876 39.9544 72.4398 39.8306 72.7154 39.1584C72.9207 38.6578 72.9404 38.4384 72.9404 36.7819C72.9404 33.4519 72.5439 32.6531 70.2236 31.2806C69.5254 30.8755 68.8083 30.5038 68.0748 30.1669C67.7124 30.0215 67.3609 29.8504 67.0229 29.655C67.0876 29.5903 69.3489 30.2484 70.2573 30.6C71.6129 31.1203 71.8351 31.1878 72.0011 31.1231C72.1107 31.0809 72.1642 30.7603 72.2176 29.8181ZM45.1979 35.5134C43.5695 33.2719 42.5626 29.8322 42.7792 27.2616L42.8467 26.4656L43.2179 26.5331C43.9154 26.6597 45.1164 27.1069 45.6789 27.45C47.2201 28.3866 47.8895 29.6212 48.5673 32.7881C48.767 33.7162 49.0286 34.7653 49.1495 35.1225C49.3407 35.6934 50.072 37.0294 50.6682 37.8984C51.0957 38.5228 50.8089 38.8181 49.8639 38.7337C48.4182 38.6016 46.4607 37.2516 45.1979 35.5134ZM70.2432 52.2056C62.6298 49.14 59.9495 46.4794 59.9495 41.9906C59.9495 41.3297 59.972 40.7897 59.9973 40.7897C60.0254 40.7897 60.3207 41.0062 60.6526 41.2734C62.1967 42.5109 63.9264 43.0397 68.7104 43.7372C71.5257 44.1506 73.112 44.4825 74.5745 44.9662C79.2207 46.5075 82.0951 49.635 82.7814 53.8931C82.9782 55.1306 82.8629 57.4509 82.5395 58.6744C82.2864 59.6419 81.5073 61.3828 81.302 61.4503C81.2457 61.4672 81.1895 61.2506 81.1726 60.9497C81.0939 59.3522 80.2867 57.7941 78.9282 56.6269C77.3842 55.3022 75.3142 54.2447 70.2432 52.2056ZM64.8995 53.4769C64.8096 52.9336 64.6865 52.3964 64.5311 51.8681L64.3342 51.2887L64.697 51.6938C65.1948 52.2563 65.5914 52.9706 65.9232 53.9269C66.1792 54.6553 66.2073 54.8719 66.2045 56.0559C66.2045 57.2203 66.1736 57.4622 65.9373 58.1203C65.6088 59.0853 65.0588 59.9599 64.3314 60.6741C62.9392 62.0916 61.1532 62.8734 58.5714 63.1997C58.1214 63.2559 56.8164 63.3516 55.6661 63.4106C52.7692 63.5625 50.8651 63.8719 49.1523 64.4737C48.9979 64.543 48.8319 64.583 48.6629 64.5919C48.5954 64.5216 49.7598 63.8269 50.7245 63.3628C52.0829 62.7075 53.4329 62.3503 56.462 61.8469C57.9582 61.5966 59.5051 61.2956 59.8961 61.1747C63.6029 60.0384 65.5098 57.1078 64.8995 53.4769Z" fill="white"/><path d="M66.5606 60.6122C65.5481 58.4381 65.3175 56.3372 65.8716 54.3797C65.9306 54.1716 66.0262 54 66.0825 54C66.2729 54.0689 66.452 54.1656 66.6141 54.2869C67.0809 54.6019 68.0147 55.1306 70.5037 56.4862C73.6116 58.1822 75.3834 59.4956 76.59 60.9919C77.6447 62.3053 78.2972 63.8016 78.6122 65.6241C78.7894 66.6562 78.6853 69.1397 78.4209 70.1803C77.5856 73.4597 75.6422 76.0359 72.8747 77.5378C72.6135 77.6889 72.3429 77.8232 72.0647 77.94C72.0253 77.94 72.1716 77.5659 72.3937 77.1047C73.3219 75.1584 73.4316 73.2628 72.7256 71.1534C72.2953 69.8625 71.415 68.2847 69.6403 65.6241C67.5759 62.5303 67.0697 61.7034 66.5606 60.6122ZM37.9659 72.3431C40.7925 69.9581 44.3053 68.265 47.5087 67.7447C48.8869 67.5197 51.1875 67.6097 52.4644 67.9359C54.5119 68.4591 56.3456 69.6347 57.2991 71.0325C58.2272 72.3994 58.6294 73.5919 59.0428 76.2412C59.2116 77.2875 59.3887 78.3366 59.4422 78.5756C59.7516 79.9481 60.3619 81.0478 61.1156 81.599C62.3109 82.4737 64.3725 82.5272 66.3975 81.7397C66.6091 81.6426 66.8321 81.5727 67.0613 81.5316C67.1344 81.6047 66.1162 82.2881 65.3962 82.6481C64.5466 83.1028 63.5951 83.3332 62.6316 83.3175C60.7753 83.3175 59.2341 82.3753 57.9487 80.4487C57.6956 80.0691 57.1275 78.9356 56.6831 77.9259C55.3275 74.8322 54.6581 73.8872 53.0831 72.855C51.7078 71.955 49.9387 71.7947 48.6084 72.4472C46.8591 73.305 46.3725 75.5409 47.6241 76.9556C48.1219 77.5181 49.05 78.0047 49.8094 78.0975C50.1406 78.1414 50.4775 78.1137 50.7971 78.0162C51.1167 77.9187 51.4117 77.7537 51.662 77.5324C51.9124 77.3111 52.1123 77.0386 52.2483 76.7334C52.3843 76.4281 52.4532 76.0973 52.4503 75.7631C52.4503 74.8294 52.0903 74.3006 51.1903 73.8928C49.9613 73.3387 48.6394 73.9856 48.645 75.1416C48.6478 75.6337 48.8616 75.9431 49.3566 76.1681C49.6744 76.3087 49.68 76.3228 49.4212 76.2694C48.2934 76.0331 48.0291 74.6747 48.9375 73.7719C50.0259 72.6862 52.2787 73.1644 53.0522 74.6437C53.3784 75.2653 53.415 76.5056 53.1309 77.2537C52.4981 78.9272 50.6475 79.8047 48.7716 79.3266C47.4947 79.0003 46.9744 78.6487 45.4359 77.0625C42.7612 74.3062 41.7234 73.7719 37.8647 73.17L37.125 73.0547L37.9659 72.3431Z" fill="white"/><path fill-rule="evenodd" clip-rule="evenodd" d="M25.875 17.8987L26.145 18.2278C36.5737 30.9966 41.9625 37.6228 42.3056 38.0953C42.8681 38.8772 42.6572 39.5775 41.6897 40.1287C41.1525 40.4353 40.0444 40.7447 39.4931 40.7447C38.8659 40.7447 38.16 40.4437 37.6453 39.9572C37.2825 39.6112 35.8172 37.4231 32.4337 32.1722C30.8493 29.6904 29.2443 27.2219 27.6187 24.7669C27.4809 24.6375 27.4837 24.6403 32.1694 33.0244C35.1112 38.2894 36.1069 40.1484 36.1069 40.3987C36.1069 40.905 35.9662 41.1694 35.3419 41.8669C34.3012 43.0284 33.8372 44.3334 33.4997 47.0334C33.1228 50.0625 32.0653 52.2 29.1291 55.8591C27.4134 58.0022 27.1322 58.3959 26.6962 59.2594C26.1506 60.345 26.0016 60.9553 25.9397 62.3278C25.875 63.7791 26.0016 64.7184 26.4459 66.105C26.8341 67.32 27.2391 68.1244 28.2741 69.7275C29.1684 71.1141 29.6831 72.1434 29.6831 72.5456C29.6831 72.8662 29.745 72.8662 31.1316 72.5541C34.4475 71.8059 37.1391 70.4869 38.655 68.8725C39.5916 67.8741 39.8109 67.3228 39.8194 65.9531C39.8222 65.0587 39.7912 64.8703 39.5494 64.3556C39.1556 63.5175 38.4384 62.82 36.8578 61.74C34.785 60.3225 33.9019 59.1806 33.6572 57.6141C33.4547 56.3287 33.6881 55.4203 34.8356 53.0184C36.0197 50.5322 36.315 49.4747 36.5147 46.9687C36.6412 45.3487 36.8184 44.7103 37.2853 44.1984C37.7691 43.6641 38.2078 43.4812 39.4087 43.3181C41.3662 43.0509 42.6122 42.5447 43.6359 41.6025C44.5247 40.7812 44.8959 39.9909 44.9522 38.8041L44.9972 37.9041L44.4994 37.3247C43.785 36.4922 37.8759 29.9728 26.7694 17.7609L26.4712 17.4375L25.875 17.8987ZM30.6956 63.9731C30.8918 63.6257 30.9504 63.2173 30.8598 62.8287C30.7692 62.4401 30.5359 62.0998 30.2062 61.875C29.565 61.4475 28.5666 61.65 28.5666 62.2069C28.5666 62.3756 28.6594 62.4994 28.8703 62.6091C29.2275 62.7919 29.2528 63 28.9744 63.4191C28.6903 63.8466 28.7128 64.2234 29.0391 64.4794C29.5622 64.89 30.3019 64.6622 30.6956 63.9731ZM46.2319 43.7906C45.3122 44.0719 44.4206 45.0478 44.1422 46.0687C43.9734 46.6903 44.0691 47.7844 44.3222 48.1219C44.73 48.6675 45.1266 48.8109 46.1953 48.8025C48.2878 48.7884 50.1047 47.8912 50.3184 46.7691C50.4928 45.8494 49.6912 44.5753 48.5916 44.0128C48.0234 43.7259 46.8169 43.6106 46.2319 43.7906ZM48.6787 45.7031C49.0022 45.2447 48.8587 44.7469 48.3131 44.415C47.2669 43.7766 45.6862 44.3025 45.6862 45.2925C45.6862 45.7819 46.5103 46.3191 47.2641 46.3191C47.7703 46.3191 48.4566 46.0181 48.6787 45.7031Z" fill="white"/></svg> 