<!-- created by svgstack.com | Attribution is required. --><svg width="19" height="16" viewBox="0 0 19 16" fill="none" xmlns="http://www.w3.org/2000/svg"><g clip-path="url(#clip0_202_504)"><path d="M16.1635 2.43129L14.0206 3.52305L3.67295 8.79364C3.63796 8.52677 3.62035 8.25791 3.62024 7.98875C3.62166 6.91482 3.90361 5.8599 4.43818 4.92847C4.97275 3.99704 5.74137 3.22143 6.66793 2.67846C7.59449 2.13549 8.64682 1.844 9.72069 1.83287C10.7946 1.82174 11.8527 2.09136 12.7903 2.61501L14.0169 1.99007L14.1998 1.8967C13.0762 1.08118 11.749 0.592203 10.3649 0.483804C8.98081 0.375405 7.59367 0.651808 6.35682 1.28247C5.11997 1.91312 4.08157 2.87348 3.35639 4.05739C2.63121 5.24129 2.24749 6.60265 2.24763 7.99101C2.24763 8.18276 2.25491 8.37375 2.26947 8.564C2.28985 8.83341 2.2301 9.10283 2.09774 9.33836C1.96537 9.57389 1.76629 9.76501 1.52556 9.88767L0.878784 10.2175V11.7557L2.78297 10.7852L3.39963 10.4704L4.00725 10.161L14.9159 4.60277L16.1417 3.97858L18.6753 2.68729V1.14978L16.1635 2.43129Z" fill="black"/><path d="M18.6753 4.22644L4.62693 11.3794L3.40114 12.0051L0.878784 13.2903V14.8271L3.38382 13.5509L5.52669 12.4591L15.8849 7.18098C15.9199 7.44962 15.9375 7.72024 15.9376 7.99115C15.9369 9.06632 15.6551 10.1226 15.12 11.0552C14.5849 11.9877 13.8152 12.7641 12.8873 13.3073C11.9594 13.8504 10.9056 14.1414 9.83047 14.1514C8.75535 14.1614 7.69631 13.89 6.7585 13.3641L6.68321 13.404L5.35351 14.0817C6.47685 14.8972 7.80377 15.3864 9.18767 15.495C10.5716 15.6037 11.9586 15.3276 13.1954 14.6974C14.4323 14.0672 15.4708 13.1073 16.1963 11.9238C16.9218 10.7403 17.306 9.37931 17.3065 7.99115C17.3065 7.79764 17.2989 7.60414 17.2846 7.41289C17.2643 7.14357 17.3239 6.87425 17.4562 6.63875C17.5884 6.40324 17.7872 6.21206 18.0278 6.08922L18.6753 5.75943V4.22644Z" fill="black"/></g><defs><clipPath id="clip0_202_504"><rect width="18.8235" height="16" fill="white" transform="translate(0.115967 0.000244141)"/></clipPath></defs></svg> 