<!-- created by svgstack.com | Attribution is required. --><svg width="19" height="16" viewBox="0 0 19 16" fill="none" xmlns="http://www.w3.org/2000/svg"><g clip-path="url(#clip0_202_426)"><path d="M15.6545 0.894531H18.2827L12.8132 6.31002C10.8325 8.27016 7.62112 8.27016 5.63897 6.31002L0.167358 0.894531H2.79768L6.95306 5.00836C7.5585 5.60507 8.37443 5.93957 9.2245 5.93957C10.0746 5.93957 10.8905 5.60507 11.4959 5.00836L15.6545 0.894531Z" fill="#23292F"/><path d="M2.764 15.9533H0.134033L5.63903 10.5044C7.61976 8.54427 10.8311 8.54427 12.8133 10.5044L18.3183 15.9533H15.6901L11.4992 11.8061C10.8937 11.2094 10.0778 10.8749 9.22775 10.8749C8.37768 10.8749 7.56176 11.2094 6.95632 11.8061L2.764 15.9533Z" fill="#23292F"/></g><defs><clipPath id="clip0_202_426"><rect width="18.8235" height="16" fill="white" transform="translate(0.134033 0.000244141)"/></clipPath></defs></svg> 